<svg width="60" height="61" viewBox="0 0 60 61" fill="none" xmlns="http://www.w3.org/2000/svg">
<path d="M7.87289 44.018C10.4123 42.4176 12.1022 40.0408 12.1022 36.7934C12.1022 35.6126 11.8787 34.4845 11.4722 33.4499C8.57676 31.947 6.59579 28.8986 6.59579 25.3826C6.59579 20.377 10.6108 16.3192 15.5636 16.3192C16.4157 16.3192 17.24 16.4393 18.0209 16.6636M7.87289 44.018H1V52.5474H4.41176M7.87289 44.018H30V52.5474H26.5882M23.2543 44.018C20.7149 42.4176 19.0251 40.0408 19.0251 36.7934C19.0251 35.6126 19.2485 34.4845 19.655 33.4499C22.5505 31.947 24.5314 28.8986 24.5314 25.3826C24.5314 21.2382 21.7791 17.7434 18.0209 16.6636M4.41176 52.5474V57.6651H26.5882M4.41176 52.5474H26.5882M26.5882 57.6651V52.5474M26.5882 57.6651H59V3.07686H18.0209V16.6636M24.885 11.6063H38.5294M52.1765 18.4298H33.4118M52.1765 25.2533H33.4118M52.1765 42.3122C52.1765 46.9044 48.1909 50.8416 43.6471 50.8416C39.1032 50.8416 35.1176 46.9044 35.1176 42.3122C35.1176 37.7199 39.1032 33.7827 43.6471 33.7827C48.1909 33.7827 52.1765 37.7199 52.1765 42.3122Z" stroke="white" stroke-width="2"/>
</svg>
