<svg width="65" height="65" viewBox="0 0 65 65" fill="none" xmlns="http://www.w3.org/2000/svg">
<path d="M17.1661 7.56732C21.55 4.90438 26.696 3.37097 32.2002 3.37097C48.2165 3.37097 61.2002 16.3547 61.2002 32.371C61.2002 48.3872 48.2165 61.371 32.2002 61.371C16.1839 61.371 3.2002 48.3872 3.2002 32.371C3.2002 27.1806 4.56375 22.3087 6.95219 18.094M28.2902 33.0577C25.7574 31.3804 24.1069 28.3797 24.1069 26.396V24.5389M28.2902 33.0577C29.4365 33.8169 30.7636 34.305 32.2001 34.305C33.6367 34.305 34.9638 33.8169 36.1101 33.0577M28.2902 33.0577V35.9603M28.2902 35.9603C28.4899 37.3092 29.5515 40.0068 32.2001 40.0068C34.8488 40.0068 35.9104 37.3092 36.1101 35.9603M28.2902 35.9603C24.8113 35.9195 17.8535 37.1252 17.8535 42.2753V46.7129C17.8535 47.8175 18.7489 48.7129 19.8535 48.7129H24.4442M24.4442 48.7129H31.0349M24.4442 48.7129V45.2182M36.1101 33.0577C38.6429 31.3804 40.2934 28.3797 40.2934 26.396V23.5158M36.1101 33.0577V35.9603M36.1101 35.9603C39.589 35.9195 46.5468 37.1252 46.5468 42.2753V47.0327C46.5468 47.9607 45.7946 48.7129 44.8666 48.7129H39.9561M39.9561 48.7129H33.3654M39.9561 48.7129V45.2182M24.1069 24.5389V19.3452C24.1069 16.2609 26.3467 15.0209 27.4666 14.9364C29.0513 14.8168 28.8739 13.1699 32.2001 13.1702C38.2146 13.1707 40.1017 17.2869 40.2934 19.3452V23.5158M24.1069 24.5389C24.9991 24.5515 26.791 24.0766 26.8213 22.0759C26.8516 20.0752 28.9306 19.6508 29.9663 19.6887H32.2001C35.4228 19.8782 34.3901 22.7563 37.5448 23.5158C39.2292 23.9214 40.2584 23.5585 40.2934 23.5158" stroke="white" stroke-width="2"/>
</svg>
