<svg width="61" height="61" viewBox="0 0 61 61" fill="none" xmlns="http://www.w3.org/2000/svg">
<g clip-path="url(#clip0_4090_3725)">
<path d="M44.0991 31.0565V4.07082C44.0991 2.57974 42.8903 1.37097 41.3992 1.37097H6.38686C4.89578 1.37097 3.68701 2.57974 3.68701 4.07082V54.0463C3.68701 55.5374 4.89578 56.7462 6.38687 56.7462H31.89M42.7144 46.754H46.732C48.9512 46.754 50.1895 45.8914 50.1895 43.6722C50.1895 41.453 48.9512 40.5194 46.732 40.5194H42.7144V46.754ZM42.7144 46.754V50.7696M42.7144 50.7696V55.3452M42.7144 50.7696H46.1157M42.7144 50.7696H39.3388M57.6459 47.2335C57.6459 53.9368 52.2117 59.371 45.5084 59.371C38.805 59.371 33.3709 53.9368 33.3709 47.2335C33.3709 40.5301 38.805 35.096 45.5084 35.096C52.2117 35.096 57.6459 40.5301 57.6459 47.2335ZM11.6284 21.6016H35.9534C36.6989 21.6016 37.3033 20.9973 37.3033 20.2517V12.2262C37.3033 11.4806 36.6989 10.8762 35.9534 10.8762H11.6284C10.8828 10.8762 10.2784 11.4806 10.2784 12.2262V20.2517C10.2784 20.9973 10.8828 21.6016 11.6284 21.6016ZM11.6284 28.4001H14.3335C15.079 28.4001 15.6834 29.0044 15.6834 29.75V31.1038C15.6834 31.8493 15.079 32.4537 14.3335 32.4537H11.6284C10.8828 32.4537 10.2784 31.8493 10.2784 31.1038V29.75C10.2784 29.0044 10.8828 28.4001 11.6284 28.4001ZM22.4383 28.4001H25.1434C25.889 28.4001 26.4934 29.0044 26.4934 29.75V31.1038C26.4934 31.8493 25.889 32.4537 25.1434 32.4537H22.4383C21.6928 32.4537 21.0884 31.8493 21.0884 31.1038V29.75C21.0884 29.0044 21.6928 28.4001 22.4383 28.4001ZM33.2483 28.4001H35.9534C36.6989 28.4001 37.3033 29.0044 37.3033 29.75V31.1038C37.3033 31.8493 36.6989 32.4537 35.9534 32.4537H33.2483C32.5027 32.4537 31.8983 31.8493 31.8983 31.1038V29.75C31.8983 29.0044 32.5027 28.4001 33.2483 28.4001ZM11.6284 37.8165H14.3335C15.079 37.8165 15.6834 38.4209 15.6834 39.1664V40.5202C15.6834 41.2658 15.079 41.8701 14.3335 41.8701H11.6284C10.8828 41.8701 10.2784 41.2658 10.2784 40.5202V39.1664C10.2784 38.4209 10.8828 37.8165 11.6284 37.8165ZM22.4383 37.8165H25.1434C25.889 37.8165 26.4934 38.4209 26.4934 39.1664V40.5202C26.4934 41.2658 25.889 41.8701 25.1434 41.8701H22.4383C21.6928 41.8701 21.0884 41.2658 21.0884 40.5202V39.1664C21.0884 38.4209 21.6928 37.8165 22.4383 37.8165ZM11.6284 47.2334H14.3335C15.079 47.2334 15.6834 47.8378 15.6834 48.5833V49.9371C15.6834 50.6827 15.079 51.2871 14.3335 51.2871H11.6284C10.8828 51.2871 10.2784 50.6827 10.2784 49.9371V48.5833C10.2784 47.8378 10.8828 47.2334 11.6284 47.2334ZM22.0884 47.2334H25.4934C26.0457 47.2334 26.4934 47.6811 26.4934 48.2334V50.2871C26.4934 50.8394 26.0457 51.2871 25.4934 51.2871H22.0884C21.5361 51.2871 21.0884 50.8394 21.0884 50.2871V48.2334C21.0884 47.6811 21.5361 47.2334 22.0884 47.2334Z" stroke="white" stroke-width="2"/>
</g>
<defs>
<clipPath id="clip0_4090_3725">
<rect width="60" height="60" fill="white" transform="translate(0.666504 0.370972)"/>
</clipPath>
</defs>
</svg>
