<svg width="65" height="65" viewBox="0 0 65 65" fill="none" xmlns="http://www.w3.org/2000/svg">
<path d="M60.4985 32.371H52.7231M60.4985 32.371C60.4985 24.8453 57.515 18.0155 52.6648 12.9973M60.4985 32.371C60.4985 39.8967 57.515 46.7264 52.6648 51.7447M32.5654 4.47253C18.0799 4.47253 6.16974 15.4849 4.76986 29.5846M32.5654 4.47253V12.9973M32.5654 4.47253C40.4574 4.47253 47.5849 7.74132 52.6648 12.9973M35.4588 60.1216C42.1907 59.4296 48.2138 56.35 52.6648 51.7447M52.6648 12.9973L46.8651 18.7898M13.2884 12.9973L19.0882 18.7898M52.6648 51.7447L46.8651 45.9521M32.0579 60.2694C16.9494 60.2694 4.70166 48.0368 4.70166 32.9472H13.5679C13.5463 34.4547 14.6104 37.7485 15.5777 39.2181C13.9953 40.4254 13.2044 40.8643 12.2555 42.1319C13.1631 44.8299 16.3918 50.6014 22.0451 52.1037C23.3102 51.2208 24.4872 49.6273 24.8978 48.915C27.4524 50.0861 28.8733 50.36 31.4458 50.4043L32.0579 60.2694Z" stroke="white" stroke-width="2"/>
<path d="M20.2593 39.4247V37.6043L26.0761 32.0805C26.5643 31.6201 26.927 31.2156 27.1641 30.8669C27.4013 30.5181 27.5547 30.1973 27.6245 29.9044C27.7082 29.5975 27.75 29.3115 27.75 29.0465C27.75 28.3769 27.5198 27.8608 27.0595 27.4981C26.5992 27.1215 25.9227 26.9332 25.0299 26.9332C24.3185 26.9332 23.6699 27.0587 23.084 27.3098C22.5121 27.5609 22.0169 27.9445 21.5984 28.4606L19.6943 26.996C20.2663 26.2288 21.0335 25.6359 21.996 25.2174C22.9724 24.785 24.0604 24.5688 25.2601 24.5688C26.3202 24.5688 27.2409 24.7432 28.022 25.0919C28.8171 25.4267 29.4239 25.9079 29.8424 26.5356C30.2748 27.1634 30.491 27.9096 30.491 28.7745C30.491 29.2488 30.4283 29.723 30.3027 30.1973C30.1772 30.6576 29.94 31.1459 29.5913 31.662C29.2426 32.1781 28.7334 32.757 28.0639 33.3987L23.0631 38.1484L22.4981 37.1231H31.056V39.4247H20.2593Z" fill="white"/>
<path d="M32.1102 36.0978V34.2147L39.3289 24.778H42.2373L35.1232 34.2147L33.7632 33.7962H45.3759V36.0978H32.1102ZM40.1449 39.4247V36.0978L40.2286 33.7962V30.846H42.7813V39.4247H40.1449Z" fill="white"/>
</svg>
