<svg width="61" height="61" viewBox="0 0 61 61" fill="none" xmlns="http://www.w3.org/2000/svg">
<g clip-path="url(#clip0_4090_3720)">
<path d="M43.2205 20.4841C52.1195 20.4841 59.3335 27.6981 59.3335 36.5971C59.3335 39.2948 58.6705 41.8376 57.4987 44.0716L59.0835 52.2345L50.2333 51.108C48.1132 52.1345 45.7341 52.7101 43.2205 52.7101C39.6452 52.7101 36.3418 51.5456 33.6691 49.5753M22.3436 34.6731C22.3436 31.7634 27.271 30.4511 27.271 26.5377C27.271 23.8164 25.0649 21.6103 22.3436 21.6103C19.6223 21.6103 17.4163 23.8164 17.4163 26.5377M22.3436 38.3652V40.4045M45.3458 30.038C45.3458 42.1917 35.4933 52.0441 23.3396 52.0441C19.6838 52.0441 16.2362 51.1527 13.2023 49.5753L2.36788 52.2345L4.27831 41.0424C2.40543 37.8053 1.3335 34.0468 1.3335 30.038C1.3335 17.8843 11.186 8.03186 23.3396 8.03186C35.4933 8.03186 45.3458 17.8843 45.3458 30.038Z" stroke="white" stroke-width="2"/>
</g>
<defs>
<clipPath id="clip0_4090_3720">
<rect width="60" height="60" fill="white" transform="translate(0.333496 0.370972)"/>
</clipPath>
</defs>
</svg>
