<svg width="65" height="65" viewBox="0 0 65 65" fill="none" xmlns="http://www.w3.org/2000/svg">
<path fill-rule="evenodd" clip-rule="evenodd" d="M25.3969 12.373C25.3969 8.50532 28.5323 5.37 32.3999 5.37C36.2675 5.37 39.4029 8.50533 39.4029 12.373C39.4029 13.7886 38.9828 15.1062 38.2605 16.2078L33.1071 11.0544L32.4 10.3473L31.6929 11.0544L7.5948 35.1525L6.8877 35.8597L7.5948 36.5668L31.6929 60.6649L32.4 61.372L33.1071 60.6649L57.2052 36.5668L57.9123 35.8597L57.2052 35.1525L39.6982 17.6455C40.7707 16.1636 41.4029 14.3421 41.4029 12.373C41.4029 7.40076 37.3721 3.37 32.3999 3.37C27.4277 3.37 23.3969 7.40075 23.3969 12.373H25.3969ZM32.4 13.1758L36.9342 17.7099C36.7492 17.8673 36.5559 18.0152 36.355 18.1529C35.6703 16.6523 34.1567 15.6094 32.3996 15.6094C29.9997 15.6094 28.0541 17.555 28.0541 19.9549C28.0541 22.3548 29.9997 24.3004 32.3996 24.3004C34.695 24.3004 36.5747 22.5207 36.7342 20.2658C37.3156 19.9459 37.8579 19.5635 38.352 19.1278L55.0839 35.8597L32.4 58.5435L9.71612 35.8597L32.4 13.1758ZM32.3996 17.6094C33.3692 17.6094 34.2014 18.1977 34.5586 19.0369C33.8787 19.257 33.1532 19.3759 32.3999 19.3759V21.3759C33.0941 21.3759 33.77 21.2973 34.4191 21.1486C34.0106 21.8381 33.2591 22.3004 32.3996 22.3004C31.1043 22.3004 30.0541 21.2503 30.0541 19.9549C30.0541 18.6595 31.1043 17.6094 32.3996 17.6094ZM28.3767 46.3298V52.3273H30.4033V46.3298H34.442V44.3038H30.4033V42.3186H35.7467C38.2669 42.3186 40.247 41.7502 41.687 40.6133C43.1461 39.4764 43.8756 38.2645 43.8756 36.1234C43.8756 34.0012 43.1461 32.3716 41.687 31.2347C40.247 30.0978 38.2669 29.2879 35.7467 29.2879H28.3767V44.3038H24.4052V46.3298H28.3767ZM30.4033 40.2865H35.7752C37.7079 40.2865 39.1859 39.8697 40.2091 39.036C41.2512 38.2022 41.7723 37.6866 41.7723 36.1518C41.7723 34.617 41.2512 33.4327 40.2091 32.599C39.1859 31.7653 37.7079 31.3484 35.7752 31.3484H30.4033V40.2865Z" fill="white"/>
</svg>
