<svg width="65" height="65" viewBox="0 0 65 65" fill="none" xmlns="http://www.w3.org/2000/svg">
<path d="M27.8396 27.7312L50.7844 16.259M27.8396 27.7312V56.0568M27.8396 27.7312L17.7881 22.7056M4.89453 16.259L27.8396 4.58356L35.4879 8.47539M4.89453 16.259V44.2799L27.8396 56.0568M4.89453 16.259L12.448 20.0356M27.8396 56.0568L38.0348 50.7639M50.7844 16.259L40.9096 11.2342M50.7844 16.259V30.3419M35.4879 8.47539L12.448 20.0356M35.4879 8.47539L40.9096 11.2342M12.448 20.0356L17.7881 22.7056M12.448 20.0356V29.5588L17.7881 32.2999V22.7056M17.7881 22.7056L40.9096 11.2342M24.1842 44.9906V50.0668L17.0774 46.5134V41.3357L24.1842 44.9906ZM49.8832 60.1584C43.7617 56.0074 39.0616 49.8652 39.0616 43.8886C39.0616 37.912 43.9066 33.067 49.8832 33.067C55.8598 33.067 60.7048 37.912 60.7048 43.8886C60.7048 49.8652 56.0047 56.0074 49.8832 60.1584ZM55.3098 43.9755C55.3098 46.9725 52.8803 49.402 49.8833 49.402C46.8863 49.402 44.4568 46.9725 44.4568 43.9755C44.4568 40.9785 46.8863 38.549 49.8833 38.549C52.8803 38.549 55.3098 40.9785 55.3098 43.9755Z" stroke="white" stroke-width="2"/>
</svg>
