<svg width="28" height="37" viewBox="0 0 28 37" fill="none" xmlns="http://www.w3.org/2000/svg">
<path fill-rule="evenodd" clip-rule="evenodd" d="M24.7621 13.967C24.7621 19.7356 21.8435 24.6549 18.6514 28.2872C17.0753 30.0807 15.4928 31.4898 14.3059 32.4482C14.2175 32.5196 14.1314 32.5884 14.0478 32.6546C13.9642 32.5884 13.8781 32.5196 13.7896 32.4482C12.6027 31.4898 11.0202 30.0807 9.44413 28.2872C6.25211 24.6549 3.3335 19.7356 3.3335 13.967C3.3335 8.13942 8.1059 3.37097 14.0478 3.37097C19.9897 3.37097 24.7621 8.13942 24.7621 13.967ZM27.7621 13.967C27.7621 27.5631 14.0478 36.371 14.0478 36.371C14.0478 36.371 0.333496 27.5631 0.333496 13.967C0.333496 6.45813 6.47359 0.370972 14.0478 0.370972C21.622 0.370972 27.7621 6.45813 27.7621 13.967ZM17.9047 13.967C17.9047 16.0401 16.2024 17.765 14.0476 17.765C11.8928 17.765 10.1904 16.0401 10.1904 13.967C10.1904 11.8938 11.8928 10.1689 14.0476 10.1689C16.2024 10.1689 17.9047 11.8938 17.9047 13.967ZM20.9047 13.967C20.9047 17.7214 17.8347 20.765 14.0476 20.765C10.2605 20.765 7.19043 17.7214 7.19043 13.967C7.19043 10.2125 10.2605 7.16895 14.0476 7.16895C17.8347 7.16895 20.9047 10.2125 20.9047 13.967Z" fill="#18181A"/>
</svg>
