<svg width="41" height="17" viewBox="0 0 41 17" fill="none" xmlns="http://www.w3.org/2000/svg">
<path d="M0 3.63411V17H6.87892V2.14958L0 3.63411Z" fill="white"/>
<path d="M9.9613 1.48443V10.5646C9.9613 15.109 14.4097 17 19.8975 17H25.7395L23.8011 12.5447H20.6618C18.5523 12.5447 16.8402 12.2279 16.8402 10.0695V8.08941H21.807V7.96106L19.9245 3.63411H16.8402V0L9.9613 1.48443Z" fill="white"/>
<path d="M31.0638 17H29.1996L27.2613 12.5447H30.2995C32.409 12.5447 34.1211 12.2279 34.1211 10.0695V8.08941H31.0899L29.1581 3.63412L41 3.63411V10.5646C41 15.109 36.5516 17 31.0638 17Z" fill="white"/>
</svg>
