<svg width="16" height="16" viewBox="0 0 16 16" fill="none" xmlns="http://www.w3.org/2000/svg">
<path d="M0.749454 7.93238L4.44525 9.04962C7.06308 7.411 12.3449 4.1114 12.5297 4.02202C12.7607 3.9103 13.1072 3.68685 13.2227 3.79857C13.3151 3.88795 13.1072 4.13375 12.9917 4.24547L6.40855 10.0551L6.06207 13.6303C6.25455 13.6303 6.75503 13.5186 7.217 13.0717L8.71842 11.6193C9.48838 12.2151 11.2131 13.5409 11.9522 14.0772C12.8762 14.7476 13.3382 14.3007 13.5692 13.4069C13.8001 12.5131 14.8396 7.48548 15.3016 5.36272C15.7635 3.23995 16.2255 1.89926 15.879 1.67581C15.6018 1.49705 14.8396 1.67581 14.4931 1.78754C10.3739 3.31444 1.83509 6.47996 0.63396 6.92686C-0.567174 7.37375 0.210483 7.78341 0.749454 7.93238Z" fill="white"/>
</svg>
