<svg width="271" height="40" viewBox="0 0 271 40" fill="none" xmlns="http://www.w3.org/2000/svg">
<path d="M0 19.9142C0 30.8238 8.84393 39.3104 19.7535 39.3104H23.5128L29.6841 33.4516C28.85 33.6123 20.6344 33.4516 19.7535 33.4516C12.277 33.4516 6.21608 27.3907 6.21608 19.9142C6.21608 12.4377 12.277 6.37685 19.7535 6.37685C23.4201 6.37685 26.7463 7.83457 29.184 10.2021L33.6189 5.84474C30.0526 2.32987 25.1563 0.160767 19.7535 0.160767C8.84393 0.160767 0 9.0047 0 19.9142Z" fill="#1FA65A"/>
<path d="M19.8393 30.0661H33.2143L39.2001 23.9747H19.8393C17.5967 23.9747 15.7788 22.1568 15.7788 19.9142C15.7788 17.6717 17.5967 15.8538 19.8393 15.8538C20.9826 15.8538 22.0156 16.3263 22.7535 17.0867L26.9495 12.6681C25.118 10.8708 22.6081 9.76233 19.8393 9.76233C14.2325 9.76233 9.68738 14.3075 9.68738 19.9142C9.68738 25.521 14.2325 30.0661 19.8393 30.0661Z" fill="white"/>
<path d="M60.4653 9.92962L67.8274 29.1592H63.1574L61.7015 25.2583H51.9768L50.5209 29.1592H45.8508L53.213 9.92962H60.4653ZM53.2679 21.797H60.4103L57.3886 13.6382H56.2897L53.2679 21.797Z" fill="white"/>
<path d="M67.821 19.5444C67.821 11.6328 73.2877 9.59998 77.7105 9.59998C81.6937 9.59998 86.5286 11.2482 87.4351 17.3742H82.875C82.3256 14.1876 80.1829 13.3085 77.7105 13.3085C74.7436 13.3085 72.2713 14.5722 72.2713 19.5444C72.2713 24.5166 74.7436 25.7803 77.7105 25.7803C80.1829 25.7803 82.3256 24.9012 82.875 21.7146H87.4351C86.5286 27.8406 81.6937 29.4888 77.7105 29.4888C73.2877 29.4888 67.821 27.456 67.821 19.5444Z" fill="white"/>
<path d="M89.2214 29.1592V9.92962H93.6716V17.4841H99.6877L103.644 9.92962H108.176L103.067 19.2422L108.451 29.1592H103.781L99.4954 20.9454H93.6716V29.1592H89.2214Z" fill="white"/>
<path d="M119.388 10.2593H138.618V29.4888H134.168V13.9678H123.839V29.4888H119.388V10.2593Z" fill="white"/>
<path d="M140.535 19.874C140.535 11.9625 146.002 9.92962 150.425 9.92962C154.848 9.92962 160.314 11.9625 160.314 19.874C160.314 27.7856 154.848 29.8185 150.425 29.8185C146.002 29.8185 140.535 27.7856 140.535 19.874ZM144.986 19.874C144.986 24.8463 147.458 26.1099 150.425 26.1099C153.392 26.1099 155.864 24.8463 155.864 19.874C155.864 14.9018 153.392 13.6382 150.425 13.6382C147.458 13.6382 144.986 14.9018 144.986 19.874Z" fill="white"/>
<path d="M160.857 25.7803C162.945 25.9451 163.412 25.5605 163.412 19.874V13.9678H163.385V10.2593H180.499V29.4888H176.049V13.9678H167.835V21.1926C167.835 26.1374 167.176 31.1371 160.857 29.4888V25.7803Z" fill="white"/>
<path d="M200.982 10.2593V29.4888H196.532V17.2643L187.137 29.4888H183.236V10.2593H187.687V22.4563L197.082 10.2593H200.982Z" fill="white"/>
<path d="M213.924 29.4888L208.347 13.9678H208.045V29.4888H203.732V10.2593H211.204L216.863 25.7803H217.165L222.824 10.2593H230.269V29.4888H225.956V13.9678H225.654L220.077 29.4888H213.924Z" fill="white"/>
<path d="M233.027 10.2593H250.608V13.9678H237.477V18.061H247.175V21.5223H237.477V25.7803H250.883V29.4888H233.027V10.2593Z" fill="white"/>
<path d="M261.143 25.7803H257.544V29.4888H253.094V10.2593H261.143C264.934 10.2593 270.4 11.8526 270.4 18.006C270.4 24.1595 264.934 25.7803 261.143 25.7803ZM257.544 22.0717H260.511C263.45 22.0717 265.95 21.2476 265.95 18.006C265.95 14.792 263.478 13.9678 260.511 13.9678H257.544V22.0717Z" fill="white"/>
</svg>
