<svg width="135" height="38" viewBox="0 0 135 38" fill="none" xmlns="http://www.w3.org/2000/svg">
<path d="M0 19.1671C0 29.3662 8.26806 37.3003 18.4672 37.3003H21.9818L27.7512 31.823C26.9714 31.9732 19.2908 31.823 18.4672 31.823C11.4776 31.823 5.81133 26.1567 5.81133 19.1671C5.81133 12.1774 11.4776 6.51115 18.4672 6.51115C21.8951 6.51115 25.0047 7.87395 27.2837 10.0873L31.4298 6.01369C28.0957 2.72769 23.5183 0.699829 18.4672 0.699829C8.26806 0.699829 0 8.96789 0 19.1671Z" fill="#1FA65A"/>
<path d="M18.5475 28.658H31.0516L36.6476 22.9632H18.5475C16.451 22.9632 14.7514 21.2636 14.7514 19.1671C14.7514 17.0706 16.451 15.3711 18.5475 15.3711C19.6164 15.3711 20.5821 15.8128 21.272 16.5237L25.1948 12.3929C23.4825 10.7125 21.136 9.67627 18.5475 9.67627C13.3058 9.67627 9.05664 13.9255 9.05664 19.1671C9.05664 24.4088 13.3058 28.658 18.5475 28.658Z" fill="white"/>
<path d="M48.2908 6.51523L52.8921 18.5337H49.9734L49.0634 16.0957H42.9855L42.0755 18.5337H39.1567L43.7581 6.51523H48.2908ZM43.7924 13.9323H48.2564L46.3678 8.83308H45.681L43.7924 13.9323Z" fill="white"/>
<path d="M52.8881 12.5245C52.8881 7.57973 56.3048 6.3092 59.069 6.3092C61.5586 6.3092 64.5803 7.33936 65.1469 11.1681H62.2968C61.9535 9.17647 60.6143 8.62705 59.069 8.62705C57.2147 8.62705 55.6695 9.41683 55.6695 12.5245C55.6695 15.6321 57.2147 16.4219 59.069 16.4219C60.6143 16.4219 61.9535 15.8725 62.2968 13.8808H65.1469C64.5803 17.7096 61.5586 18.7397 59.069 18.7397C56.3048 18.7397 52.8881 17.4692 52.8881 12.5245Z" fill="white"/>
<path d="M66.2633 18.5337V6.51523H69.0447V11.2368H72.8048L75.2772 6.51523H78.1101L74.9166 12.3356L78.2818 18.5337H75.363L72.6846 13.4001H69.0447V18.5337H66.2633Z" fill="white"/>
<path d="M40.3586 20.0152H52.377V32.0337H49.5956V22.3331H43.14V32.0337H40.3586V20.0152Z" fill="white"/>
<path d="M53.5755 26.0245C53.5755 21.0797 56.9922 19.8092 59.7565 19.8092C62.5207 19.8092 65.9374 21.0797 65.9374 26.0245C65.9374 30.9692 62.5207 32.2397 59.7565 32.2397C56.9922 32.2397 53.5755 30.9692 53.5755 26.0245ZM56.357 26.0245C56.357 29.1321 57.9022 29.9219 59.7565 29.9219C61.6107 29.9219 63.156 29.1321 63.156 26.0245C63.156 22.9168 61.6107 22.127 59.7565 22.127C57.9022 22.127 56.357 22.9168 56.357 26.0245Z" fill="white"/>
<path d="M66.2767 29.7158C67.5816 29.8189 67.8735 29.5785 67.8735 26.0245V22.3331H67.8563V20.0152H78.5527V32.0337H75.7713V22.3331H70.6377V26.8486C70.6377 29.9391 70.2257 33.0638 66.2767 32.0337V29.7158Z" fill="white"/>
<path d="M91.355 20.0152V32.0337H88.5735V24.3934L82.7017 32.0337H80.2636V20.0152H83.045V27.6384L88.9169 20.0152H91.355Z" fill="white"/>
<path d="M99.4433 32.0337L95.9579 22.3331H95.7691V32.0337H93.0735V20.0152H97.7435L101.28 29.7158H101.469L105.006 20.0152H109.659V32.0337H106.963V22.3331H106.775L103.289 32.0337H99.4433Z" fill="white"/>
<path d="M111.383 20.0152H122.371V22.3331H114.164V24.8913H120.225V27.0546H114.164V29.7158H122.543V32.0337H111.383V20.0152Z" fill="white"/>
<path d="M128.955 29.7158H126.706V32.0337H123.924V20.0152H128.955C131.324 20.0152 134.741 21.0111 134.741 24.857C134.741 28.7029 131.324 29.7158 128.955 29.7158ZM126.706 27.398H128.56C130.397 27.398 131.96 26.8829 131.96 24.857C131.96 22.8482 130.414 22.3331 128.56 22.3331H126.706V27.398Z" fill="white"/>
</svg>
