<svg width="270" height="74" viewBox="0 0 270 74" fill="none" xmlns="http://www.w3.org/2000/svg">
<path d="M0 37.3056C0 57.7039 16.5361 73.572 36.9345 73.572H43.9636L55.5024 62.6174C53.9429 62.9178 38.5817 62.6174 36.9345 62.6174C22.9551 62.6174 11.6227 51.2849 11.6227 37.3056C11.6227 23.3262 22.9551 11.9937 36.9345 11.9937C43.7902 11.9937 50.0094 14.7193 54.5674 19.1461L62.8596 10.9988C56.1914 4.42682 47.0366 0.371094 36.9345 0.371094C16.5361 0.371094 0 16.9072 0 37.3056Z" fill="white"/>
<path d="M37.095 56.2873H62.1032L73.2952 44.8977H37.095C32.902 44.8977 29.5029 41.4986 29.5029 37.3056C29.5029 33.1126 32.902 29.7134 37.095 29.7134C39.2328 29.7134 41.1642 30.597 42.5439 32.0188L50.3895 23.757C46.965 20.3964 42.2721 18.3239 37.095 18.3239C26.6117 18.3239 18.1133 26.8223 18.1133 37.3056C18.1133 47.7889 26.6117 56.2873 37.095 56.2873Z" fill="white"/>
<path d="M96.5815 12.0019L105.784 36.0388H99.9467L98.1268 31.1628H85.971L84.151 36.0388H78.3135L87.5162 12.0019H96.5815ZM87.5849 26.8361H96.5129L92.7356 16.6376H91.3621L87.5849 26.8361Z" fill="white"/>
<path d="M105.776 24.0204C105.776 14.1309 112.61 11.5898 118.138 11.5898C123.117 11.5898 129.161 13.6502 130.294 21.3076H124.594C123.907 17.3244 121.229 16.2255 118.138 16.2255C114.429 16.2255 111.339 17.8051 111.339 24.0204C111.339 30.2356 114.429 31.8152 118.138 31.8152C121.229 31.8152 123.907 30.7164 124.594 26.7331H130.294C129.161 34.3906 123.117 36.4509 118.138 36.4509C112.61 36.4509 105.776 33.9098 105.776 24.0204Z" fill="white"/>
<path d="M132.527 36.0388V12.0019H138.089V21.445H145.61L150.554 12.0019H156.22L149.833 23.6426L156.564 36.0388H150.726L145.369 25.7716H138.089V36.0388H132.527Z" fill="white"/>
<path d="M80.7172 39.0019H104.754V63.0388H99.1913V43.6376H86.28V63.0388H80.7172V39.0019Z" fill="white"/>
<path d="M107.151 51.0204C107.151 41.1309 113.984 38.5898 119.513 38.5898C125.041 38.5898 131.875 41.1309 131.875 51.0204C131.875 60.9098 125.041 63.4509 119.513 63.4509C113.984 63.4509 107.151 60.9098 107.151 51.0204ZM112.714 51.0204C112.714 57.2356 115.804 58.8152 119.513 58.8152C123.221 58.8152 126.312 57.2356 126.312 51.0204C126.312 44.8051 123.221 43.2255 119.513 43.2255C115.804 43.2255 112.714 44.8051 112.714 51.0204Z" fill="white"/>
<path d="M132.553 58.4031C135.163 58.6092 135.747 58.1284 135.747 51.0204V43.6376H135.713V39.0019H157.105V63.0388H151.543V43.6376H141.275V52.6686C141.275 58.8495 140.451 65.0991 132.553 63.0388V58.4031Z" fill="white"/>
<path d="M182.71 39.0019V63.0388H177.147V47.7582L165.403 63.0388H160.527V39.0019H166.09V54.2482L177.834 39.0019H182.71Z" fill="white"/>
<path d="M198.887 63.0388L191.916 43.6376H191.538V63.0388H186.147V39.0019H195.487L202.561 58.4031H202.938L210.012 39.0019H219.318V63.0388H213.927V43.6376H213.549L206.578 63.0388H198.887Z" fill="white"/>
<path d="M222.766 39.0019H244.742V43.6376H228.329V48.754H240.45V53.0807H228.329V58.4031H245.086V63.0388H222.766V39.0019Z" fill="white"/>
<path d="M257.91 58.4031H253.412V63.0388H247.849V39.0019H257.91C262.649 39.0019 269.482 40.9935 269.482 48.6854C269.482 56.3772 262.649 58.4031 257.91 58.4031ZM253.412 53.7674H257.12C260.794 53.7674 263.919 52.7373 263.919 48.6854C263.919 44.6678 260.829 43.6376 257.12 43.6376H253.412V53.7674Z" fill="white"/>
</svg>
